# xmcd
#
# Track frame offsets: 
#        150
#        19284
#        38314
#        52535
#        69738
#        87526
#        103742
#        122057
#        144735
#        160266
#
# Disc length: 2389 seconds
#
# Revision: 2
# Processed by: cddbd v1.5.2PL0 Copyright (c) Steve Scherf et al.
# Submitted via: ExactAudioCopy v1.3
#
DISCID=8009530a
DTITLE=Juice Newton - The Trouble With Angels
DYEAR=1998
DGENRE=Country
TTITLE0=Angel Of The Morning
TTITLE1=Ride 'Em Cowboy
TTITLE2=Love's Been A Little Bit Hard On Me
TTITLE3=When I Get Over You
TTITLE4=The Trouble With Angels
TTITLE5=This Old Flame
TTITLE6=Break It To Me Gently
TTITLE7=Red Blooded American Girl
TTITLE8=Queen Of Hearts
TTITLE9=The Sweetest Thing
EXTD=
EXTT0=
EXTT1=
EXTT2=
EXTT3=
EXTT4=
EXTT5=
EXTT6=
EXTT7=
EXTT8=
EXTT9=
PLAYORDER=
